<svg xmlns="http://www.w3.org/2000/svg" width="1920" height="1080" viewBox="0 0 1920 1080">
  <defs>
    <pattern id="grid" width="64" height="64" patternUnits="userSpaceOnUse">
      <path d="M64 0H0V64" fill="none" stroke="#151515" stroke-opacity=".055" stroke-width="1"/>
    </pattern>
    <g id="nx-logo">
      <g transform="translate(5.8)">
        <path fill="#050505" d="M17.8 30.4h-4.3c-4.6 0-8.6 3.4-8.6 8V61c0 4.6 4 8.6 8.6 8.6h4.3V30.4Z"/>
        <path fill="#00BDDE" d="M17 68.9h-3.5c-4.2 0-7.8-3.7-7.8-7.8V38.4c0-2 .8-3.8 2.3-5.2 1.5-1.3 3.4-2.1 5.5-2.1H17v37.8Z"/>
        <g fill="#050505"><circle cx="8.7" cy="51.2" r="1.5"/><circle cx="14.8" cy="51.2" r="1.5"/><circle cx="11.8" cy="48.1" r="1.5"/><circle cx="11.8" cy="40.3" r="3.3"/><circle cx="11.8" cy="54.3" r="1.5"/><rect x="12.7" y="57.4" width="2.4" height="2.3" rx=".25"/></g>
      </g>
      <g transform="translate(18.465 25.658) scale(.1580645)" fill="#050505">
        <path d="M39 88V30h321v248H225v-20h115V50H59v38H39Z"/>
        <g transform="translate(4 -4)"><path d="M39 127a151 151 0 0 1 151 151h-26A125 125 0 0 0 39 153v-26Z"/><path d="M39 182a96 96 0 0 1 96 96h-26a70 70 0 0 0-70-70v-26Z"/><path d="M39 238a40 40 0 0 1 40 40H39v-40Z"/></g>
      </g>
      <g transform="translate(-5.8)">
        <path fill="#050505" d="M82.2 30.4h4.3c4.6 0 8.6 3.4 8.6 8V61c0 4.6-4 8.6-8.6 8.6h-4.3V30.4Z"/>
        <path fill="#FF5F52" d="M94.3 61c0 4.2-3.6 7.8-7.8 7.8H83V31.1h3.5c2.1 0 4 .7 5.5 2.1 1.5 1.4 2.3 3.2 2.3 5.2V61Z"/>
        <g fill="#050505"><circle cx="91.7" cy="40.2" r="1.5"/><circle cx="85.6" cy="40.2" r="1.5"/><circle cx="88.7" cy="37.2" r="1.5"/><circle cx="88.7" cy="51.5" r="3.3"/><circle cx="88.7" cy="43.3" r="1.5"/><circle cx="86.6" cy="58.7" r="1.6"/></g>
      </g>
    </g>
  </defs>
  <rect width="1920" height="1080" fill="#F4F0E8"/>
  <rect width="1920" height="1080" fill="url(#grid)"/>
  <rect x="0" y="0" width="28" height="1080" fill="#00BDDE"/>
  <rect x="1892" y="0" width="28" height="1080" fill="#FF5F52"/>

  <text x="112" y="112" fill="#111111" font-family="Avenir Next, Helvetica, sans-serif" font-size="26" font-weight="700" letter-spacing="7">NX-CAST / 01</text>
  <text x="960" y="220" text-anchor="middle" fill="#0A0A0A" font-family="Arial Unicode MS, sans-serif" font-size="86" font-weight="700">把媒体，投到 Switch。</text>
  <text x="960" y="292" text-anchor="middle" fill="#0A0A0A" font-family="Avenir Next, Helvetica, sans-serif" font-size="36" font-weight="600" letter-spacing="2">CAST MEDIA TO YOUR SWITCH</text>

  <use href="#nx-logo" transform="translate(191.707 -89.294) scale(15.36585)"/>
</svg>
