<svg xmlns="http://www.w3.org/2000/svg" width="1920" height="1080" viewBox="0 0 1920 1080">
  <defs>
    <g id="nx-logo">
      <g transform="translate(5.8)">
        <path fill="#050505" d="M17.8 30.4h-4.3c-4.6 0-8.6 3.4-8.6 8V61c0 4.6 4 8.6 8.6 8.6h4.3V30.4Z"/>
        <path fill="#00BDDE" d="M17 68.9h-3.5c-4.2 0-7.8-3.7-7.8-7.8V38.4c0-2 .8-3.8 2.3-5.2 1.5-1.3 3.4-2.1 5.5-2.1H17v37.8Z"/>
        <g fill="#050505"><circle cx="8.7" cy="51.2" r="1.5"/><circle cx="14.8" cy="51.2" r="1.5"/><circle cx="11.8" cy="48.1" r="1.5"/><circle cx="11.8" cy="40.3" r="3.3"/><circle cx="11.8" cy="54.3" r="1.5"/><rect x="12.7" y="57.4" width="2.4" height="2.3" rx=".25"/></g>
      </g>
      <g transform="translate(18.465 25.658) scale(.1580645)" fill="#050505"><path d="M39 88V30h321v248H225v-20h115V50H59v38H39Z"/><g transform="translate(4 -4)"><path d="M39 127a151 151 0 0 1 151 151h-26A125 125 0 0 0 39 153v-26Z"/><path d="M39 182a96 96 0 0 1 96 96h-26a70 70 0 0 0-70-70v-26Z"/><path d="M39 238a40 40 0 0 1 40 40H39v-40Z"/></g></g>
      <g transform="translate(-5.8)">
        <path fill="#050505" d="M82.2 30.4h4.3c4.6 0 8.6 3.4 8.6 8V61c0 4.6-4 8.6-8.6 8.6h-4.3V30.4Z"/>
        <path fill="#FF5F52" d="M94.3 61c0 4.2-3.6 7.8-7.8 7.8H83V31.1h3.5c2.1 0 4 .7 5.5 2.1 1.5 1.4 2.3 3.2 2.3 5.2V61Z"/>
        <g fill="#050505"><circle cx="91.7" cy="40.2" r="1.5"/><circle cx="85.6" cy="40.2" r="1.5"/><circle cx="88.7" cy="37.2" r="1.5"/><circle cx="88.7" cy="51.5" r="3.3"/><circle cx="88.7" cy="43.3" r="1.5"/><circle cx="86.6" cy="58.7" r="1.6"/></g>
      </g>
    </g>
  </defs>
  <rect width="1920" height="1080" fill="#F4F0E8"/>
  <text x="112" y="112" fill="#111111" font-family="Avenir Next, Helvetica, sans-serif" font-size="26" font-weight="700" letter-spacing="7">NX-CAST / 02</text>
  <text x="112" y="240" fill="#0A0A0A" font-family="Avenir Next, Helvetica, sans-serif" font-size="88" font-weight="800">ONE URL. ONE CAST.</text>
  <text x="116" y="304" fill="#44413B" font-family="Arial Unicode MS, sans-serif" font-size="34">一个 URL，一次投送。</text>

  <g transform="translate(180 390)" fill="none" stroke="#0A0A0A" stroke-width="18">
    <rect x="0" y="0" width="250" height="390" rx="28"/>
    <path d="M82 335h86" stroke-width="12" stroke-linecap="round"/>
    <rect x="300" y="62" width="330" height="240" rx="16"/>
    <path d="M365 350h200M465 302v48" stroke-width="14" stroke-linecap="square"/>
  </g>
  <text x="495" y="860" text-anchor="middle" fill="#0A0A0A" font-family="Avenir Next, Helvetica, sans-serif" font-size="28" font-weight="700" letter-spacing="3">PHONE / DESKTOP</text>

  <g transform="translate(885 510)" fill="#0A0A0A">
    <path d="M0 0a178 178 0 0 1 178 178h-30A148 148 0 0 0 0 30V0Z"/>
    <path d="M0 62a116 116 0 0 1 116 116H86A86 86 0 0 0 0 92V62Z"/>
    <path d="M0 128a50 50 0 0 1 50 50H0v-50Z"/>
  </g>
  <text x="974" y="860" text-anchor="middle" fill="#0A0A0A" font-family="Avenir Next, Helvetica, sans-serif" font-size="28" font-weight="700" letter-spacing="5">DLNA</text>

  <path d="M770 635h72M1100 635h72" stroke="#FF5F52" stroke-width="12"/>
  <path d="m842 635-26-18v36l26-18ZM1172 635l-26-18v36l26-18Z" fill="#FF5F52"/>

  <use href="#nx-logo" transform="translate(1125.244 225.237) scale(7.19512)"/>
  <text x="1485" y="860" text-anchor="middle" fill="#0A0A0A" font-family="Avenir Next, Helvetica, sans-serif" font-size="28" font-weight="700" letter-spacing="4">NX-CAST</text>
</svg>
