<svg xmlns="http://www.w3.org/2000/svg" xmlns:xlink="http://www.w3.org/1999/xlink" version="1.1" x="0px" y="0px" viewBox="0 0 100 125" style="enable-background:new 0 0 100 100;" xml:space="preserve"><circle cx="8.7" cy="51.2" r="1.5"/><circle cx="14.8" cy="51.2" r="1.5"/><circle cx="11.8" cy="48.1" r="1.5"/><circle cx="11.8" cy="40.3" r="3.3"/><circle cx="11.8" cy="54.3" r="1.5"/><rect x="12.7" y="57.4" width="2.4" height="2.3"/><circle cx="91.7" cy="40.2" r="1.5"/><circle cx="85.6" cy="40.2" r="1.5"/><circle cx="88.7" cy="37.2" r="1.5"/><circle cx="88.7" cy="51.5" r="3.3"/><circle cx="88.7" cy="43.3" r="1.5"/><circle cx="86.6" cy="58.7" r="1.6"/><path d="M86.5,30.4h-4.3H17.8h-4.3c-4.6,0-8.6,3.4-8.6,8V61c0,4.6,4,8.6,8.6,8.6h4.3h0h64.5h0h4.3c4.6,0,8.6-4,8.6-8.6l0-22.7  C95.1,33.8,91.1,30.4,86.5,30.4z M17,68.9h-3.5c-4.2,0-7.8-3.7-7.8-7.8V38.4c0-2,0.8-3.8,2.3-5.2c1.5-1.3,3.4-2.1,5.5-2.1H17V68.9z   M76.5,65.5H23.5v-31h52.9V65.5z M94.3,61c0,4.2-3.6,7.8-7.8,7.8H83V31.1h3.5c2.1,0,4,0.7,5.5,2.1c1.5,1.4,2.3,3.2,2.3,5.2V61z"/><text x="0" y="115" fill="#000000" font-size="5px" font-weight="bold" font-family="'Helvetica Neue', Helvetica, Arial-Unicode, Arial, Sans-serif">Created by Sweet Farm</text><text x="0" y="120" fill="#000000" font-size="5px" font-weight="bold" font-family="'Helvetica Neue', Helvetica, Arial-Unicode, Arial, Sans-serif">from the Noun Project</text></svg>